<svg data-v-fde0c5aa="" xmlns="http://www.w3.org/2000/svg" viewBox="0 0 300 300" class="iconLeft"><!----><defs data-v-fde0c5aa=""><linearGradient data-v-fde0c5aa="" gradientTransform="rotate(25)" id="6af4e9c8-1428-4a1d-9840-c1ac9a4bb005" x1="0%" y1="0%" x2="100%" y2="0%"><stop data-v-fde0c5aa="" offset="0%" stop-color="#32142D" stop-opacity="1"></stop><stop data-v-fde0c5aa="" offset="100%" stop-color="#32142D" stop-opacity="1"></stop></linearGradient></defs><rect data-v-fde0c5aa="" fill="url(#6af4e9c8-1428-4a1d-9840-c1ac9a4bb005)" x="0" y="0" width="300px" height="300px" class="logo-background-square"></rect><defs data-v-fde0c5aa=""><!----></defs><g data-v-fde0c5aa="" id="33cf87d4-72bc-4e7e-8373-be7a375b0ad3" fill="#ffffff" transform="matrix(3.994026930283469,0,0,3.994026930283469,109.26541742338539,111.57745948325268)"><path d="M3.98 12.63L0.59 12.63L0.59 12.33L0.59 12.33Q1.34 12.33 1.47 12.05L1.47 12.05L1.47 5.01L1.47 5.01Q1.34 4.73 0.59 4.73L0.59 4.73L0.59 4.44L3.81 4.44L3.81 4.44Q5.67 4.44 6.80 5.57L6.80 5.57L6.80 5.57Q7.94 6.69 7.94 8.51L7.94 8.51L7.94 8.51Q7.94 10.33 6.83 11.48L6.83 11.48L6.83 11.48Q5.73 12.63 3.98 12.63L3.98 12.63ZM3.81 4.84L2.76 4.84L2.76 12.15L3.98 12.15L3.98 12.15Q4.42 12.15 4.85 11.95L4.85 11.95L4.85 11.95Q5.28 11.75 5.67 11.34L5.67 11.34L5.67 11.34Q6.06 10.93 6.30 10.21L6.30 10.21L6.30 10.21Q6.54 9.48 6.54 8.53L6.54 8.53L6.54 8.53Q6.54 6.71 5.72 5.78L5.72 5.78L5.72 5.78Q4.90 4.84 3.81 4.84L3.81 4.84ZM12.01 12.63L8.99 12.63L8.99 12.33L8.99 12.33Q9.74 12.33 9.87 12.05L9.87 12.05L9.87 7.32L9.87 7.32Q9.00 7.25 8.99 7.25L8.99 7.25L8.99 6.93L8.99 6.93Q9.25 6.93 10.03 6.63L10.03 6.63L10.03 6.63Q10.81 6.33 11.13 6.33L11.13 6.33L11.13 12.05L11.13 12.05Q11.26 12.33 12.01 12.33L12.01 12.33L12.01 12.63ZM10.46 5.43L10.46 5.43L10.46 5.43Q10.15 5.43 9.92 5.20L9.92 5.20L9.92 5.20Q9.69 4.97 9.69 4.61L9.69 4.61L9.69 4.61Q9.69 4.28 9.89 4.05L9.89 4.05L9.89 4.05Q10.09 3.81 10.42 3.81L10.42 3.81L10.42 3.81Q10.72 3.81 10.96 4.05L10.96 4.05L10.96 4.05Q11.20 4.28 11.20 4.65L11.20 4.65L11.20 4.65Q11.20 4.97 10.99 5.20L10.99 5.20L10.99 5.20Q10.78 5.43 10.46 5.43ZM18.56 6.33L18.56 6.33L18.56 12.22L18.56 12.22Q18.56 13.66 17.87 14.55L17.87 14.55L17.87 14.55Q17.18 15.43 15.85 15.43L15.85 15.43L15.85 15.43Q14.66 15.43 13.94 15.02L13.94 15.02L13.94 15.02Q13.22 14.62 13.22 14.17L13.22 14.17L13.22 14.17Q13.22 13.85 13.38 13.66L13.38 13.66L13.38 13.66Q13.55 13.47 13.82 13.47L13.82 13.47L13.82 13.47Q14.07 13.47 14.26 13.59L14.26 13.59L14.26 13.59Q14.45 13.72 14.45 13.96L14.45 13.96L14.45 13.96Q14.45 14.41 14.10 14.55L14.10 14.55L14.10 14.55Q14.48 14.92 15.71 14.92L15.71 14.92L15.71 14.92Q17.15 14.92 17.29 12.35L17.29 12.35L17.29 12.35Q16.65 12.77 15.64 12.77L15.64 12.77L15.64 12.77Q15.18 12.77 14.72 12.62L14.72 12.62L14.72 12.62Q14.27 12.47 13.81 12.14L13.81 12.14L13.81 12.14Q13.36 11.80 13.07 11.14L13.07 11.14L13.07 11.14Q12.78 10.47 12.78 9.58L12.78 9.58L12.78 9.58Q12.78 8.01 13.66 7.17L13.66 7.17L13.66 7.17Q14.53 6.33 15.95 6.33L15.95 6.33L15.95 6.33Q16.83 6.33 17.49 6.78L17.49 6.78L17.49 6.78Q18.20 6.33 18.56 6.33ZM17.30 11.89L17.30 11.89L17.30 11.72L17.30 7.10L17.30 7.10Q16.80 6.80 16.03 6.80L16.03 6.80L16.03 6.80Q15.26 6.80 14.69 7.54L14.69 7.54L14.69 7.54Q14.11 8.27 14.11 9.58L14.11 9.58L14.11 9.58Q14.11 10.81 14.57 11.55L14.57 11.55L14.57 11.55Q15.04 12.29 15.78 12.29L15.78 12.29L15.78 12.29Q16.70 12.29 17.30 11.89ZM25.84 6.33L25.84 6.33L25.84 12.22L25.84 12.22Q25.84 13.66 25.15 14.55L25.15 14.55L25.15 14.55Q24.46 15.43 23.13 15.43L23.13 15.43L23.13 15.43Q21.94 15.43 21.22 15.02L21.22 15.02L21.22 15.02Q20.50 14.62 20.50 14.17L20.50 14.17L20.50 14.17Q20.50 13.85 20.66 13.66L20.66 13.66L20.66 13.66Q20.83 13.47 21.10 13.47L21.10 13.47L21.10 13.47Q21.35 13.47 21.54 13.59L21.54 13.59L21.54 13.59Q21.73 13.72 21.73 13.96L21.73 13.96L21.73 13.96Q21.73 14.41 21.38 14.55L21.38 14.55L21.38 14.55Q21.76 14.92 22.99 14.92L22.99 14.92L22.99 14.92Q24.43 14.92 24.57 12.35L24.57 12.35L24.57 12.35Q23.93 12.77 22.92 12.77L22.92 12.77L22.92 12.77Q22.46 12.77 22.00 12.62L22.00 12.62L22.00 12.62Q21.55 12.47 21.09 12.14L21.09 12.14L21.09 12.14Q20.64 11.80 20.35 11.14L20.35 11.14L20.35 11.14Q20.06 10.47 20.06 9.58L20.06 9.58L20.06 9.58Q20.06 8.01 20.94 7.17L20.94 7.17L20.94 7.17Q21.81 6.33 23.23 6.33L23.23 6.33L23.23 6.33Q24.11 6.33 24.77 6.78L24.77 6.78L24.77 6.78Q25.48 6.33 25.84 6.33ZM24.58 11.89L24.58 11.89L24.58 11.72L24.58 7.10L24.58 7.10Q24.08 6.80 23.31 6.80L23.31 6.80L23.31 6.80Q22.54 6.80 21.97 7.54L21.97 7.54L21.97 7.54Q21.39 8.27 21.39 9.58L21.39 9.58L21.39 9.58Q21.39 10.81 21.85 11.55L21.85 11.55L21.85 11.55Q22.32 12.29 23.06 12.29L23.06 12.29L23.06 12.29Q23.98 12.29 24.58 11.89ZM30.11 12.63L27.09 12.63L27.09 12.33L27.09 12.33Q27.85 12.33 27.97 12.05L27.97 12.05L27.97 4.80L27.97 4.80Q27.10 4.73 27.09 4.73L27.09 4.73L27.09 4.41L27.09 4.41Q27.36 4.41 28.13 4.11L28.13 4.11L28.13 4.11Q28.91 3.81 29.23 3.81L29.23 3.81L29.23 12.05L29.23 12.05Q29.36 12.33 30.11 12.33L30.11 12.33L30.11 12.63ZM36.86 6.47L36.86 11.77L36.86 11.77Q36.86 11.77 37.74 11.84L37.74 11.84L37.74 12.17L37.74 12.17Q37.48 12.17 36.70 12.47L36.70 12.47L36.70 12.47Q35.92 12.77 35.60 12.77L35.60 12.77L35.60 12.12L35.60 12.12Q34.85 12.77 33.94 12.77L33.94 12.77L33.94 12.77Q32.63 12.77 32.05 12.29L32.05 12.29L32.05 12.29Q31.47 11.80 31.47 10.78L31.47 10.78L31.47 7.04L31.47 7.04Q31.35 6.76 30.59 6.76L30.59 6.76L30.59 6.47L32.73 6.47L32.73 10.88L32.73 10.88Q32.73 12.29 34.02 12.29L34.02 12.29L34.02 12.29Q34.90 12.29 35.60 11.68L35.60 11.68L35.60 7.04L35.60 7.04Q35.48 6.76 34.72 6.76L34.72 6.76L34.72 6.47L36.86 6.47Z"></path></g><defs data-v-fde0c5aa=""><!----></defs><g data-v-fde0c5aa="" id="8087d1a8-aa47-4ed5-bfa4-4d9e51465939" stroke="none" fill="#ffffff" transform="matrix(0.7327817046731455,0,0,0.7327817046731455,39.99853454281359,115.19266513704417)"><path d="M9.974 0A2.546 3.22 0 0 0 7.37 3.218v26.1a29.473 26.388 0 0 0-2.105 9.737 29.473 26.388 0 0 0 2.775 11.11 26.443 26.443 0 0 0-3.283 1.268 44.464 44.464 0 0 0-4.755 2.563l.561.89s2.09-1.325 4.632-2.491c1.08-.495 2.236-.951 3.337-1.272a29.473 26.388 0 0 0 1.285 2.004c-1.336.34-2.73.89-4.01 1.476-2.618 1.202-4.755 2.56-4.755 2.56l.561.892s2.09-1.323 4.632-2.49c1.271-.583 2.654-1.125 3.921-1.44.123-.03.237-.047.358-.073a29.473 26.388 0 0 0 1.686 1.981c-.407.056-.819.13-1.242.235-1.366.339-2.799.902-4.108 1.503a44.777 44.777 0 0 0-4.755 2.56l.561.891s2.09-1.324 4.632-2.49c1.271-.583 2.654-1.125 3.921-1.439a8.676 8.676 0 0 1 1.961-.272 29.473 26.388 0 0 0 1.637 1.441 22.105 21.11 0 0 0-2.186 9.096 22.105 21.11 0 0 0 9.622 17.422 6.223 8.502 78.3 0 0-2.077 5.746 6.223 8.502 78.3 0 0 9.965 3.931 6.223 8.502 78.3 0 0 4.593-2.436 8.502 6.223 11.7 0 0 4.595 2.436 8.502 6.223 11.7 0 0 9.965-3.929 8.502 6.223 11.7 0 0-2.093-5.764 22.105 21.11 0 0 0 5.771-5.478c1.805.847 3.565 2.27 5.358 3.705 4.44 3.554 10.34 4.53 14.858 1.777C77.707 82.214 80.06 76.61 80 69.69a4.21 4.223 0 0 0-4.309-4.244 4.21 4.223 0 0 0-4.112 4.316c.041 5.02-1.569 7.261-2.763 7.99-1.194.727-2.76.817-5.232-1.162-1.642-1.314-3.979-3.38-7.187-4.828a22.105 21.11 0 0 0 .446-4.205 22.105 21.11 0 0 0-2.179-9.092 29.473 26.388 0 0 0 1.612-1.445 9.006 9.006 0 0 1 1.978.272c1.267.314 2.65.856 3.92 1.439a44.194 44.194 0 0 1 4.633 2.49l.563-.891s-2.14-1.359-4.757-2.56c-1.31-.601-2.74-1.164-4.106-1.503a11.909 11.909 0 0 0-1.211-.231 29.473 26.388 0 0 0 1.682-1.98c.11.025.216.04.329.068 1.267.314 2.649.856 3.92 1.439a44.194 44.194 0 0 1 4.633 2.49l.563-.891s-2.14-1.36-4.757-2.561c-1.285-.59-2.686-1.142-4.03-1.482a29.473 26.388 0 0 0 1.287-2.004c1.107.322 2.27.78 3.357 1.278a43.98 43.98 0 0 1 4.632 2.492l.563-.891s-2.14-1.361-4.757-2.563a26.504 26.504 0 0 0-3.283-1.268 29.473 26.388 0 0 0 2.777-11.11 29.473 26.388 0 0 0-2.105-9.766V3.217A2.546 3.22 0 0 0 59.502.001 2.546 3.22 0 0 0 58.29.43L40.756 13.231a29.473 26.388 0 0 0-6.017-.563 29.473 26.388 0 0 0-5.994.581L11.186.43A2.546 3.22 0 0 0 9.973.002m.555 6.332l5.981 11.992a29.473 26.388 0 0 0-5.98 5.692V6.334m48.42 0v17.724a29.473 26.388 0 0 0-5.991-5.709l5.991-12.01M19.589 35.9a12.22 12.22 0 0 1 3.16.356c4.205 1.045 7.391 4.203 7.775 7.997a.915.918 0 0 1-.183.652c-2.355 3.084-6.765 4.34-10.976 3.3-4.205-1.044-7.393-4.202-7.777-7.996a.915.918 0 0 1 .183-.652c1.767-2.314 4.689-3.598 7.817-3.657zm30.3 0c3.127.058 6.05 1.342 7.817 3.656a.915.918 0 0 1 .183.652c-.385 3.794-3.573 6.952-7.777 7.997-4.211 1.039-8.621-.216-10.976-3.301a.915.918 0 0 1-.183-.652c.385-3.794 3.571-6.952 7.775-7.997a12.216 12.216 0 0 1 3.16-.357zm-26.204 2.108a2.631 3.167 0 0 0-2.632 3.167 2.631 3.167 0 0 0 2.632 3.166 2.631 3.167 0 0 0 2.631-3.166 2.631 3.167 0 0 0-2.631-3.167m22.107 0a2.631 3.167 0 0 0-2.632 3.167 2.631 3.167 0 0 0 2.632 3.166 2.631 3.167 0 0 0 2.63-3.166 2.631 3.167 0 0 0-2.63-3.167M34.739 50.672a3.158 2.111 0 0 1 3.158 2.11 3.158 2.111 0 0 1-3.158 2.112 3.158 2.111 0 0 1-3.158-2.111 3.158 2.111 0 0 1 3.158-2.111"></path></g><!----></svg>