<svg data-v-423bf9ae="" xmlns="http://www.w3.org/2000/svg" viewBox="0 0 191.82443464434272 60" class="font"><!----><!----><!----><g data-v-423bf9ae="" id="f4332089-b5e1-4395-96af-e0d084794c08" fill="white" transform="matrix(5.163510814682382,0,0,5.163510814682382,-3.046472807870586,-19.672976385318577)"><path d="M3.98 12.63L0.59 12.63L0.59 12.33L0.59 12.33Q1.34 12.33 1.47 12.05L1.47 12.05L1.47 5.01L1.47 5.01Q1.34 4.73 0.59 4.73L0.59 4.73L0.59 4.44L3.81 4.44L3.81 4.44Q5.67 4.44 6.80 5.57L6.80 5.57L6.80 5.57Q7.94 6.69 7.94 8.51L7.94 8.51L7.94 8.51Q7.94 10.33 6.83 11.48L6.83 11.48L6.83 11.48Q5.73 12.63 3.98 12.63L3.98 12.63ZM3.81 4.84L2.76 4.84L2.76 12.15L3.98 12.15L3.98 12.15Q4.42 12.15 4.85 11.95L4.85 11.95L4.85 11.95Q5.28 11.75 5.67 11.34L5.67 11.34L5.67 11.34Q6.06 10.93 6.30 10.21L6.30 10.21L6.30 10.21Q6.54 9.48 6.54 8.53L6.54 8.53L6.54 8.53Q6.54 6.71 5.72 5.78L5.72 5.78L5.72 5.78Q4.90 4.84 3.81 4.84L3.81 4.84ZM12.01 12.63L8.99 12.63L8.99 12.33L8.99 12.33Q9.74 12.33 9.87 12.05L9.87 12.05L9.87 7.32L9.87 7.32Q9.00 7.25 8.99 7.25L8.99 7.25L8.99 6.93L8.99 6.93Q9.25 6.93 10.03 6.63L10.03 6.63L10.03 6.63Q10.81 6.33 11.13 6.33L11.13 6.33L11.13 12.05L11.13 12.05Q11.26 12.33 12.01 12.33L12.01 12.33L12.01 12.63ZM10.46 5.43L10.46 5.43L10.46 5.43Q10.15 5.43 9.92 5.20L9.92 5.20L9.92 5.20Q9.69 4.97 9.69 4.61L9.69 4.61L9.69 4.61Q9.69 4.28 9.89 4.05L9.89 4.05L9.89 4.05Q10.09 3.81 10.42 3.81L10.42 3.81L10.42 3.81Q10.72 3.81 10.96 4.05L10.96 4.05L10.96 4.05Q11.20 4.28 11.20 4.65L11.20 4.65L11.20 4.65Q11.20 4.97 10.99 5.20L10.99 5.20L10.99 5.20Q10.78 5.43 10.46 5.43ZM18.56 6.33L18.56 6.33L18.56 12.22L18.56 12.22Q18.56 13.66 17.87 14.55L17.87 14.55L17.87 14.55Q17.18 15.43 15.85 15.43L15.85 15.43L15.85 15.43Q14.66 15.43 13.94 15.02L13.94 15.02L13.94 15.02Q13.22 14.62 13.22 14.17L13.22 14.17L13.22 14.17Q13.22 13.85 13.38 13.66L13.38 13.66L13.38 13.66Q13.55 13.47 13.82 13.47L13.82 13.47L13.82 13.47Q14.07 13.47 14.26 13.59L14.26 13.59L14.26 13.59Q14.45 13.72 14.45 13.96L14.45 13.96L14.45 13.96Q14.45 14.41 14.10 14.55L14.10 14.55L14.10 14.55Q14.48 14.92 15.71 14.92L15.71 14.92L15.71 14.92Q17.15 14.92 17.29 12.35L17.29 12.35L17.29 12.35Q16.65 12.77 15.64 12.77L15.64 12.77L15.64 12.77Q15.18 12.77 14.72 12.62L14.72 12.62L14.72 12.62Q14.27 12.47 13.81 12.14L13.81 12.14L13.81 12.14Q13.36 11.80 13.07 11.14L13.07 11.14L13.07 11.14Q12.78 10.47 12.78 9.58L12.78 9.58L12.78 9.58Q12.78 8.01 13.66 7.17L13.66 7.17L13.66 7.17Q14.53 6.33 15.95 6.33L15.95 6.33L15.95 6.33Q16.83 6.33 17.49 6.78L17.49 6.78L17.49 6.78Q18.20 6.33 18.56 6.33ZM17.30 11.89L17.30 11.89L17.30 11.72L17.30 7.10L17.30 7.10Q16.80 6.80 16.03 6.80L16.03 6.80L16.03 6.80Q15.26 6.80 14.69 7.54L14.69 7.54L14.69 7.54Q14.11 8.27 14.11 9.58L14.11 9.58L14.11 9.58Q14.11 10.81 14.57 11.55L14.57 11.55L14.57 11.55Q15.04 12.29 15.78 12.29L15.78 12.29L15.78 12.29Q16.70 12.29 17.30 11.89ZM25.84 6.33L25.84 6.33L25.84 12.22L25.84 12.22Q25.84 13.66 25.15 14.55L25.15 14.55L25.15 14.55Q24.46 15.43 23.13 15.43L23.13 15.43L23.13 15.43Q21.94 15.43 21.22 15.02L21.22 15.02L21.22 15.02Q20.50 14.62 20.50 14.17L20.50 14.17L20.50 14.17Q20.50 13.85 20.66 13.66L20.66 13.66L20.66 13.66Q20.83 13.47 21.10 13.47L21.10 13.47L21.10 13.47Q21.35 13.47 21.54 13.59L21.54 13.59L21.54 13.59Q21.73 13.72 21.73 13.96L21.73 13.96L21.73 13.96Q21.73 14.41 21.38 14.55L21.38 14.55L21.38 14.55Q21.76 14.92 22.99 14.92L22.99 14.92L22.99 14.92Q24.43 14.92 24.57 12.35L24.57 12.35L24.57 12.35Q23.93 12.77 22.92 12.77L22.92 12.77L22.92 12.77Q22.46 12.77 22.00 12.62L22.00 12.62L22.00 12.62Q21.55 12.47 21.09 12.14L21.09 12.14L21.09 12.14Q20.64 11.80 20.35 11.14L20.35 11.14L20.35 11.14Q20.06 10.47 20.06 9.58L20.06 9.58L20.06 9.58Q20.06 8.01 20.94 7.17L20.94 7.17L20.94 7.17Q21.81 6.33 23.23 6.33L23.23 6.33L23.23 6.33Q24.11 6.33 24.77 6.78L24.77 6.78L24.77 6.78Q25.48 6.33 25.84 6.33ZM24.58 11.89L24.58 11.89L24.58 11.72L24.58 7.10L24.58 7.10Q24.08 6.80 23.31 6.80L23.31 6.80L23.31 6.80Q22.54 6.80 21.97 7.54L21.97 7.54L21.97 7.54Q21.39 8.27 21.39 9.58L21.39 9.58L21.39 9.58Q21.39 10.81 21.85 11.55L21.85 11.55L21.85 11.55Q22.32 12.29 23.06 12.29L23.06 12.29L23.06 12.29Q23.98 12.29 24.58 11.89ZM30.11 12.63L27.09 12.63L27.09 12.33L27.09 12.33Q27.85 12.33 27.97 12.05L27.97 12.05L27.97 4.80L27.97 4.80Q27.10 4.73 27.09 4.73L27.09 4.73L27.09 4.41L27.09 4.41Q27.36 4.41 28.13 4.11L28.13 4.11L28.13 4.11Q28.91 3.81 29.23 3.81L29.23 3.81L29.23 12.05L29.23 12.05Q29.36 12.33 30.11 12.33L30.11 12.33L30.11 12.63ZM36.86 6.47L36.86 11.77L36.86 11.77Q36.86 11.77 37.74 11.84L37.74 11.84L37.74 12.17L37.74 12.17Q37.48 12.17 36.70 12.47L36.70 12.47L36.70 12.47Q35.92 12.77 35.60 12.77L35.60 12.77L35.60 12.12L35.60 12.12Q34.85 12.77 33.94 12.77L33.94 12.77L33.94 12.77Q32.63 12.77 32.05 12.29L32.05 12.29L32.05 12.29Q31.47 11.80 31.47 10.78L31.47 10.78L31.47 7.04L31.47 7.04Q31.35 6.76 30.59 6.76L30.59 6.76L30.59 6.47L32.73 6.47L32.73 10.88L32.73 10.88Q32.73 12.29 34.02 12.29L34.02 12.29L34.02 12.29Q34.90 12.29 35.60 11.68L35.60 11.68L35.60 7.04L35.60 7.04Q35.48 6.76 34.72 6.76L34.72 6.76L34.72 6.47L36.86 6.47Z"></path></g><!----><!----></svg>